<?xml version="1.0" encoding="utf-8"?>
<!-- Generator: Adobe Illustrator 17.0.1, SVG Export Plug-In . SVG Version: 6.00 Build 0)  -->
<!DOCTYPE svg PUBLIC "-//W3C//DTD SVG 1.1//EN" "http://www.w3.org/Graphics/SVG/1.1/DTD/svg11.dtd">
<svg version="1.1" xmlns="http://www.w3.org/2000/svg" xmlns:xlink="http://www.w3.org/1999/xlink" x="0px" y="0px" width="32px"
	 height="32px" viewBox="0 0 32 32" enable-background="new 0 0 32 32" xml:space="preserve">
<g id="guides">
</g>
<g id="Layer_2">
	<g id="Arrow_3" opacity="0.7">
	</g>
	<path fill="#4D4D4D" d="M26,22.299L22.295,26c0,0-5.863-6.294-6.298-6.294C15.566,19.707,9.703,26,9.703,26L6,22.299
		c0,0,6.293-5.777,6.293-6.293C12.293,15.483,6,9.704,6,9.704l3.703-3.705c0,0,5.912,6.296,6.294,6.296
		c0.384,0,6.298-6.296,6.298-6.296L26,9.704c0,0-6.297,5.866-6.297,6.301C19.703,16.43,26,22.299,26,22.299z"/>
	<g id="Reload">
	</g>
</g>
</svg>
