<?xml version="1.0" encoding="utf-8"?>
<!-- Generator: Adobe Illustrator 17.0.1, SVG Export Plug-In . SVG Version: 6.00 Build 0)  -->
<!DOCTYPE svg PUBLIC "-//W3C//DTD SVG 1.1//EN" "http://www.w3.org/Graphics/SVG/1.1/DTD/svg11.dtd">
<svg version="1.1" xmlns="http://www.w3.org/2000/svg" xmlns:xlink="http://www.w3.org/1999/xlink" x="0px" y="0px" width="32px"
	 height="32px" viewBox="0 0 32 32" enable-background="new 0 0 32 32" xml:space="preserve">
<g id="guides">
</g>
<g id="Layer_2">
	<g id="Arrow_3" opacity="0.7">
	</g>
	<g>
		<polygon fill="#4D4D4D" points="31,23.108 26.393,23.108 26.393,27.811 22.384,27.811 22.384,23.108 17.72,23.108 17.72,19.099 
			22.384,19.099 22.384,14.531 26.393,14.531 26.393,19.099 31,19.099 		"/>
		<g>
			<path fill="#4D4D4D" d="M28.467,9.535l-12.962,5.508V28.81 M16.875,26.771V15.918l10.222-4.342"/>
			<path fill="#4D4D4D" d="M1,22.656l12.963,6.154V15.043L1,9.535V22.656z M2.372,11.576l10.221,4.342v10.853L2.372,21.919V11.576z"
				/>
			<polygon fill="#4D4D4D" points="14.539,1.857 1.207,7.599 14.55,13.298 28.032,7.588 			"/>
		</g>
	</g>
	<g id="Reload">
	</g>
</g>
</svg>
