<?xml version="1.0" encoding="utf-8"?>
<!-- Generator: Adobe Illustrator 17.0.1, SVG Export Plug-In . SVG Version: 6.00 Build 0)  -->
<!DOCTYPE svg PUBLIC "-//W3C//DTD SVG 1.1//EN" "http://www.w3.org/Graphics/SVG/1.1/DTD/svg11.dtd">
<svg version="1.1" xmlns="http://www.w3.org/2000/svg" xmlns:xlink="http://www.w3.org/1999/xlink" x="0px" y="0px" width="32px"
	 height="32px" viewBox="0 0 32 32" enable-background="new 0 0 32 32" xml:space="preserve">
<g id="guides">
</g>
<g id="Layer_2">
	<g id="Arrow_3" opacity="0.7">
	</g>
	<g>
		<path fill="#4D4D4D" d="M23.626,5.697l1.271-0.004l-0.004-2.577L19.398,3.11L19.39,2.405c-1.74-0.937-5.039-0.88-6.369-0.014
			v0.754H6.897l0.004,2.577h1.271L23.626,5.697z"/>
		<path fill="#4D4D4D" d="M16,25h-1V10h3v10h2V10h3v10h2V7H7v21h9V25z M12,25H9V10h3V25z"/>
		<path fill="#4D4D4D" d="M27.103,29.544l-1.929,1.927c0,0-3.052-3.276-3.278-3.276c-0.224,0-3.276,3.276-3.276,3.276l-1.927-1.927
			c0,0,3.276-3.007,3.276-3.276c0-0.272-3.276-3.28-3.276-3.28l1.927-1.928c0,0,3.077,3.277,3.276,3.277
			c0.2,0,3.278-3.277,3.278-3.277l1.929,1.928c0,0-3.278,3.054-3.278,3.28C23.825,26.489,27.103,29.544,27.103,29.544z"/>
	</g>
	<g id="Reload">
	</g>
</g>
</svg>
