<?xml version="1.0" encoding="utf-8"?>
<!-- Generator: Adobe Illustrator 17.0.1, SVG Export Plug-In . SVG Version: 6.00 Build 0)  -->
<!DOCTYPE svg PUBLIC "-//W3C//DTD SVG 1.1//EN" "http://www.w3.org/Graphics/SVG/1.1/DTD/svg11.dtd">
<svg version="1.1" xmlns="http://www.w3.org/2000/svg" xmlns:xlink="http://www.w3.org/1999/xlink" x="0px" y="0px" width="32px"
	 height="32px" viewBox="0 0 32 32" enable-background="new 0 0 32 32" xml:space="preserve">
<g id="guides">
</g>
<g id="Layer_2">
	<g id="Arrow_3" opacity="0.7">
	</g>
	<g>
		<path fill="#4D4D4D" d="M22.367,7.527V6.654H11.968v0.873c0,0,1.582,4.405,4.551,6.438v2.116c0,0-3.274,3.187-4.551,6.848v0.999
			h10.399v-0.999c-1.659-4.043-4.551-6.848-4.551-6.848v-2.116C21.854,10.496,22.367,7.527,22.367,7.527z"/>
		<path fill="#4D4D4D" d="M26.115,5.906V4.333h1.492v-3H6.726v3H8.22v1.573c0,2.402,4.309,8.959,4.51,9.432
			c-0.198,0.473-4.51,7.032-4.51,9.423v1.571H6.726v3.001h20.881v-3.001h-1.492v-1.571c0-2.402-4.31-8.918-4.541-9.429
			C21.805,14.823,26.115,8.306,26.115,5.906z M24.625,24.761v1.571H9.711v-1.571c0-1.726,4.57-8.563,4.57-9.429
			c0-0.866-4.57-7.701-4.57-9.427V4.333h14.915v1.573c0,1.726-4.608,8.561-4.608,9.427C20.017,16.198,24.625,23.036,24.625,24.761z"
			/>
	</g>
	<g id="Reload">
	</g>
</g>
</svg>
