<?xml version="1.0" encoding="utf-8"?>
<!-- Generator: Adobe Illustrator 17.0.1, SVG Export Plug-In . SVG Version: 6.00 Build 0)  -->
<!DOCTYPE svg PUBLIC "-//W3C//DTD SVG 1.1//EN" "http://www.w3.org/Graphics/SVG/1.1/DTD/svg11.dtd">
<svg version="1.1" xmlns="http://www.w3.org/2000/svg" xmlns:xlink="http://www.w3.org/1999/xlink" x="0px" y="0px" width="32px"
	 height="32px" viewBox="0 0 32 32" enable-background="new 0 0 32 32" xml:space="preserve">
<g id="guides">
</g>
<g id="Layer_2">
	<g id="Arrow_3" opacity="0.7">
	</g>
	<g>
		<g>
			<g>
				<path fill="#4D4D4D" d="M29.765,9.301L17.232,21.835c-0.315,0.314-0.826,0.314-1.141,0l-0.252-0.252l0,0l-0.274-0.273
					l-1.183-1.183l-0.017-0.026l-5.422-5.463c-0.314-0.314-0.314-0.826,0-1.139l1.708-1.706c0.315-0.316,0.824-0.316,1.139,0
					l4.875,4.911L26.916,6.453c0.315-0.315,0.826-0.315,1.139,0l1.71,1.71C30.079,8.476,30.079,8.987,29.765,9.301z"/>
			</g>
			<path fill="#4D4D4D" d="M24.343,24.107c0,0.908-0.74,1.648-1.65,1.648H7.299c-0.91,0-1.65-0.74-1.65-1.648V7.892
				c0-0.908,0.74-1.648,1.65-1.648h15.394c0.91,0,1.65,0.74,1.65,1.648l0,0l1.172-1.085c0.19-1.334-1.159-2.211-2.822-2.211H7.299
				C5.476,4.596,4,6.07,4,7.892v16.215c0,1.821,1.477,3.298,3.3,3.298h15.394c1.823,0,3.3-1.477,3.3-3.298V14.44l-1.65,1.796V24.107
				z"/>
		</g>
	</g>
	<g id="Reload">
	</g>
</g>
</svg>
