<?xml version="1.0" encoding="utf-8"?>
<!-- Generator: Adobe Illustrator 17.0.1, SVG Export Plug-In . SVG Version: 6.00 Build 0)  -->
<!DOCTYPE svg PUBLIC "-//W3C//DTD SVG 1.1//EN" "http://www.w3.org/Graphics/SVG/1.1/DTD/svg11.dtd">
<svg version="1.1" xmlns="http://www.w3.org/2000/svg" xmlns:xlink="http://www.w3.org/1999/xlink" x="0px" y="0px" width="32px"
	 height="32px" viewBox="0 0 32 32" enable-background="new 0 0 32 32" xml:space="preserve">
<g id="guides">
</g>
<g id="Layer_2">
	<g id="Arrow_3" opacity="0.7">
	</g>
	<g id="Reload">
		<path fill="#4D4D4D" d="M16.07,22.999c-3.816,0-6.921-3.105-6.921-6.921c0-3.817,3.105-6.922,6.921-6.922
			c1.637,0,3.139,0.575,4.324,1.53l-3.431,2.967L26,14.987l-0.017-9.135l-3.174,2.745c-1.785-1.609-4.146-2.591-6.739-2.591
			C10.509,6.006,6,10.516,6,16.077c0,5.562,4.509,10.071,10.07,10.071c4.363,0,8.076-2.774,9.476-6.654l-3.219-0.476
			C21.218,21.366,18.834,22.999,16.07,22.999z"/>
	</g>
</g>
</svg>
