<?xml version="1.0" encoding="utf-8"?>
<!-- Generator: Adobe Illustrator 17.0.1, SVG Export Plug-In . SVG Version: 6.00 Build 0)  -->
<!DOCTYPE svg PUBLIC "-//W3C//DTD SVG 1.1//EN" "http://www.w3.org/Graphics/SVG/1.1/DTD/svg11.dtd">
<svg version="1.1" xmlns="http://www.w3.org/2000/svg" xmlns:xlink="http://www.w3.org/1999/xlink" x="0px" y="0px" width="32px"
	 height="32px" viewBox="0 0 32 32" enable-background="new 0 0 32 32" xml:space="preserve">
<g id="guides">
</g>
<g id="Layer_2">
	<g id="Arrow_3" opacity="0.7">
	</g>
	<g>
		<path fill="#4D4D4D" d="M25.69,16.652l-3.475-3.476h2.038l-0.06-0.151c-1.207-3.056-4.188-5.224-7.679-5.224
			c-4.559,0-8.254,3.695-8.254,8.252c0,4.56,3.695,8.256,8.254,8.256c3.353,0,6.238-1.826,7.53-4.7l3.306,0.034
			c-0.011,0.026-2.602,7.651-10.89,7.651c-6.237,0-11.293-5.058-11.293-11.293c0-6.239,5.056-11.293,11.293-11.293
			c5.216,0,9.605,3.531,10.903,8.334l0.027,0.135h1.776L25.69,16.652z"/>
	</g>
	<g id="Reload">
	</g>
</g>
</svg>
