<?xml version="1.0" encoding="utf-8"?>
<!-- Generator: Adobe Illustrator 17.0.1, SVG Export Plug-In . SVG Version: 6.00 Build 0)  -->
<!DOCTYPE svg PUBLIC "-//W3C//DTD SVG 1.1//EN" "http://www.w3.org/Graphics/SVG/1.1/DTD/svg11.dtd">
<svg version="1.1" xmlns="http://www.w3.org/2000/svg" xmlns:xlink="http://www.w3.org/1999/xlink" x="0px" y="0px" width="32px"
	 height="32px" viewBox="0 0 32 32" enable-background="new 0 0 32 32" xml:space="preserve">
<g id="guides">
</g>
<g id="Layer_2">
	<g id="Arrow_3" opacity="0.7">
	</g>
	<g>
		<g>
			<g>
				<path fill="#4D4D4D" d="M30.812,10.648L20.799,20.662c-0.252,0.25-0.66,0.25-0.912,0l-0.201-0.201l0,0l-0.219-0.218
					l-0.945-0.945l-0.013-0.02l-4.331-4.364c-0.25-0.25-0.25-0.66,0-0.91l1.365-1.363c0.252-0.253,0.658-0.253,0.91,0l3.895,3.923
					l8.188-8.189c0.252-0.251,0.66-0.251,0.91,0l1.366,1.366C31.063,9.989,31.063,10.398,30.812,10.648z"/>
			</g>
			<path fill="#4D4D4D" d="M26.481,22.476c0,0.725-0.591,1.317-1.318,1.317H12.865c-0.727,0-1.318-0.591-1.318-1.317V9.522
				c0-0.725,0.591-1.317,1.318-1.317h12.298c0.727,0,1.318,0.591,1.318,1.317l0,0l0.936-0.867c0.151-1.066-0.926-1.767-2.255-1.767
				H12.865c-1.456,0-2.636,1.178-2.636,2.633v12.954c0,1.455,1.18,2.635,2.636,2.635h12.298c1.456,0,2.636-1.18,2.636-2.635v-7.722
				l-1.318,1.435V22.476z"/>
		</g>
		<path fill="#4D4D4D" d="M1.28,15.607l7.434-7.641c0,0,0.881-0.931,0.881,0.081c0,1.014,0,3.465,0,3.465s-2.864,0-1.951,0
			c2.615,0,1.407,0,3.342,0c0,0,0.526-0.139,0.526,0.66c0,0.799,0,7.288,0,7.859c0,0.571-0.441,0.558-0.441,0.558
			c-1.882,0-0.837,0-3.363,0c-0.818,0,2.107,0,2.107,0s0,1.965,0,3.199c0,1.233-0.924,0.303-0.924,0.303S1.95,17.368,1.221,16.64
			C0.692,16.11,1.28,15.607,1.28,15.607z"/>
	</g>
	<g id="Reload">
	</g>
</g>
</svg>
