<?xml version="1.0" encoding="utf-8"?>
<!-- Generator: Adobe Illustrator 17.0.1, SVG Export Plug-In . SVG Version: 6.00 Build 0)  -->
<!DOCTYPE svg PUBLIC "-//W3C//DTD SVG 1.1//EN" "http://www.w3.org/Graphics/SVG/1.1/DTD/svg11.dtd">
<svg version="1.1" xmlns="http://www.w3.org/2000/svg" xmlns:xlink="http://www.w3.org/1999/xlink" x="0px" y="0px" width="32px"
	 height="32px" viewBox="0 0 32 32" enable-background="new 0 0 32 32" xml:space="preserve">
<g id="guides">
</g>
<g id="Layer_2">
	<g id="Arrow_3" opacity="0.7">
	</g>
	<g>
		<path fill="#4D4D4D" d="M19.922,4.795c-5.842,0-10.577,4.736-10.577,10.576c0,5.843,4.735,10.577,10.577,10.577
			S30.5,21.214,30.5,15.371C30.5,9.531,25.765,4.795,19.922,4.795z M18.335,21.676c-0.238,0.235-0.62,0.235-0.855,0l-0.19-0.19l0,0
			l-0.206-0.205l-0.885-0.885l-0.014-0.021l-4.059-4.09c-0.236-0.235-0.236-0.62,0-0.853l1.279-1.279
			c0.238-0.237,0.617-0.237,0.853,0l3.652,3.678l7.676-7.678c0.235-0.236,0.617-0.236,0.852,0l1.279,1.281
			c0.236,0.235,0.236,0.618,0,0.853L18.335,21.676z"/>
		<path fill="#4D4D4D" d="M1.725,15.054l5.992-6.159c0,0,0.71-0.751,0.71,0.066c0,0.817,0,2.792,0,2.792s-2.308,0-1.572,0
			c2.108,0,2.134,0,3.694,0c0,0,0.424-0.112,0.424,0.532c0,0.644,0,5.874,0,6.333c0,0.46-0.355,0.45-0.355,0.45
			c-1.517,0-1.674,0-3.71,0c-0.66,0,1.698,0,1.698,0s0,1.583,0,2.578c0,0.994-0.745,0.244-0.745,0.244s-5.595-5.417-6.182-6.004
			C1.252,15.46,1.725,15.054,1.725,15.054z"/>
	</g>
	<g id="Reload">
	</g>
</g>
</svg>
