<?xml version="1.0" encoding="utf-8"?>
<!-- Generator: Adobe Illustrator 17.0.1, SVG Export Plug-In . SVG Version: 6.00 Build 0)  -->
<!DOCTYPE svg PUBLIC "-//W3C//DTD SVG 1.1//EN" "http://www.w3.org/Graphics/SVG/1.1/DTD/svg11.dtd">
<svg version="1.1" xmlns="http://www.w3.org/2000/svg" xmlns:xlink="http://www.w3.org/1999/xlink" x="0px" y="0px" width="32px"
	 height="32px" viewBox="0 0 32 32" enable-background="new 0 0 32 32" xml:space="preserve">
<g id="guides">
</g>
<g id="Layer_2">
	<g id="Arrow_3" opacity="0.7">
	</g>
	<g>
		<path fill="#4D4D4D" d="M29.515,15.576L11.568,4.115c-0.164-0.126-0.73-0.153-0.92-0.058C10.462,4.145,10,4.335,10,4.541V10h3v5h4
			v4h-4v5h-3v3.459c0,0.208,0.462,0.399,0.649,0.487L11.059,28c0.118,0,0.326-0.042,0.423-0.118l17.99-11.46
			c0.125-0.103,0.229-0.26,0.229-0.424C29.7,15.834,29.639,15.68,29.515,15.576z"/>
		<polygon fill="#4D4D4D" points="7,10 7,15 2,15 2,19 7,19 7,24 10,24 10,10 		"/>
	</g>
	<g id="Reload">
	</g>
</g>
</svg>
