<?xml version="1.0" encoding="utf-8"?>
<!-- Generator: Adobe Illustrator 17.0.1, SVG Export Plug-In . SVG Version: 6.00 Build 0)  -->
<!DOCTYPE svg PUBLIC "-//W3C//DTD SVG 1.1//EN" "http://www.w3.org/Graphics/SVG/1.1/DTD/svg11.dtd">
<svg version="1.1" xmlns="http://www.w3.org/2000/svg" xmlns:xlink="http://www.w3.org/1999/xlink" x="0px" y="0px" width="32px"
	 height="32px" viewBox="0 0 32 32" enable-background="new 0 0 32 32" xml:space="preserve">
<g id="guides">
</g>
<g id="Layer_2">
	<g id="Arrow_3" opacity="0.7">
	</g>
	<g id="_x3C_Group_x3E__27_">
		<g>
			<g>
				<path fill="#4D4D4D" d="M26.344,12.946c0-1.155-1.069-1.884-2.224-1.884h-0.008c0.862-0.147,1.889-1.189,1.889-2.204
					c0-1.112-1.061-1.809-2.176-1.809h-0.958c0.754-0.215,1.767-1.23,1.767-2.202C24.634,3.712,23.566,3,22.432,3h-9.673
					c-3.187,0-5.77,2.582-5.77,5.77c0,0,0,6.151,0,6.158c0,2.259,1.249,4.647,3.215,5.409c1.53,1.007,4.611,2.805,5.266,6.134
					c0,1.296,0,2.514,0,2.514s4.304,0.464,4.304-3.582c0-4.764-3-5.536-0.613-5.65h3.562c1.259,0,2.346-1.228,2.346-2.487
					c0-1.091-1.033-1.796-1.897-2.018h0.949C25.275,15.246,26.344,14.102,26.344,12.946z"/>
			</g>
		</g>
	</g>
	<g id="Reload">
	</g>
</g>
</svg>
