<?xml version="1.0" encoding="utf-8"?>
<!-- Generator: Adobe Illustrator 17.0.1, SVG Export Plug-In . SVG Version: 6.00 Build 0)  -->
<!DOCTYPE svg PUBLIC "-//W3C//DTD SVG 1.1//EN" "http://www.w3.org/Graphics/SVG/1.1/DTD/svg11.dtd">
<svg version="1.1" xmlns="http://www.w3.org/2000/svg" xmlns:xlink="http://www.w3.org/1999/xlink" x="0px" y="0px" width="32px"
	 height="32px" viewBox="0 0 32 32" enable-background="new 0 0 32 32" xml:space="preserve">
<g id="guides">
</g>
<g id="Layer_2">
	<g id="Arrow_3" opacity="0.7">
	</g>
	<g id="_x3C_Group_x3E__26_">
		<g>
			<g>
				<path fill="#4D4D4D" d="M26.843,18.385c0,1.156-1.068,1.884-2.225,1.884H24.61c0.864,0.148,1.89,1.191,1.89,2.204
					c0,1.113-1.061,1.808-2.174,1.808h-0.96c0.754,0.217,1.768,1.231,1.768,2.203c0,1.136-1.066,1.85-2.201,1.85h-9.675
					c-3.187,0-5.768-2.584-5.768-5.77c0,0,0-6.152,0-6.16c0-2.258,1.248-4.645,3.213-5.408c1.531-1.008,4.611-2.805,5.267-6.132
					c0-1.297,0-2.514,0-2.514s4.302-0.465,4.302,3.579c0,4.765-2.996,5.538-0.613,5.653h3.562c1.26,0,2.347,1.227,2.347,2.488
					c0,1.089-1.033,1.795-1.897,2.018h0.948C25.775,16.088,26.843,17.23,26.843,18.385z"/>
			</g>
		</g>
	</g>
	<g id="Reload">
	</g>
</g>
</svg>
